<?xml version="1.0" standalone="no"?>
<!DOCTYPE svg PUBLIC "-//W3C//DTD SVG 20010904//EN"
 "http://www.w3.org/TR/2001/REC-SVG-20010904/DTD/svg10.dtd">
<svg version="1.0" xmlns="http://www.w3.org/2000/svg"
 width="32.000000pt" height="32.000000pt" viewBox="0 0 32.000000 32.000000"
 preserveAspectRatio="xMidYMid meet">

<g transform="translate(0.000000,32.000000) scale(0.100000,-0.100000)"
fill="#000000" stroke="none">
<path d="M16 304 c-13 -12 -16 -41 -16 -148 0 -89 4 -136 12 -144 17 -17 279
-17 296 0 17 17 17 279 0 296 -8 8 -55 12 -144 12 -107 0 -136 -3 -148 -16z
m132 -26 c9 -9 15 -9 24 0 7 7 24 12 40 12 23 0 30 -7 48 -46 25 -58 26 -110
1 -150 -25 -40 -83 -68 -128 -61 -46 8 -63 23 -63 57 0 19 -7 30 -25 38 -34
16 -34 58 0 74 19 8 25 19 25 43 0 17 3 35 7 38 11 11 58 8 71 -5z"/>
<path d="M90 251 c0 -28 19 -36 38 -17 15 15 15 18 2 26 -24 15 -40 12 -40 -9z"/>
<path d="M190 260 c-13 -9 -12 -13 8 -29 52 -44 15 -121 -58 -121 -28 0 -43
-5 -47 -16 -8 -21 14 -34 60 -34 74 0 125 80 93 146 -9 19 -16 41 -16 49 0 17
-18 19 -40 5z"/>
<path d="M128 185 c-8 -17 -8 -29 -1 -36 6 -6 9 -2 9 13 -1 18 5 24 27 26 30
4 27 22 -4 22 -11 0 -24 -11 -31 -25z"/>
<path d="M53 183 c-18 -7 -16 -30 4 -37 19 -8 34 10 26 31 -5 14 -10 15 -30 6z"/>
</g>
</svg>
